<svg xmlns="http://www.w3.org/2000/svg" viewBox="0 0 512 512">
  <path d="M256 32c-35.3 0-66.7 19.3-83.3 48H64c-35.3 0-64 28.7-64 64v224c0 35.3 28.7 64 64 64h108.7c16.6 28.7 48 48 83.3 48s66.7-19.3 83.3-48H448c35.3 0 64-28.7 64-64V144c0-35.3-28.7-64-64-64H339.3c-16.6-28.7-48-48-83.3-48z" fill="#fff"/>
  <!-- Shield Outline -->
  <path d="M256 64C200 64 160 84 160 84L160 204C160 304 256 364 256 364C256 364 352 304 352 204L352 84C352 84 312 64 256 64Z" fill="#000"/>
  <path d="M256 74C206 74 171 89 171 89L171 199C171 289 256 344 256 344C256 344 341 289 341 199L341 89C341 89 306 74 256 74Z" fill="#fff"/>
  
  <!-- Text -->
  <text x="256" y="125" text-anchor="middle" font-family="'Times New Roman', Times, serif" font-weight="bold" font-size="28" fill="#000">ADVOCACIA</text>
  
  <!-- Black Bar -->
  <rect x="171" y="145" width="170" height="60" fill="#000"/>
  <text x="256" y="188" text-anchor="middle" font-family="'Times New Roman', Times, serif" font-weight="900" font-size="44" fill="#fff">LOPES</text>
  
  <text x="256" y="240" text-anchor="middle" font-family="'Times New Roman', Times, serif" font-weight="bold" font-size="22" fill="#000">CONSULTORIA</text>
  
  <!-- Laurels (Simplified representations) -->
  <g fill="none" stroke="#000" stroke-width="4">
    <!-- Left Laurel -->
    <path d="M140 100 Q80 150 140 350"/>
    <path d="M130 140 Q100 150 110 120"/>
    <path d="M120 180 Q90 190 100 160"/>
    <path d="M115 220 Q85 230 95 200"/>
    <path d="M120 260 Q90 270 100 240"/>
    <path d="M130 300 Q100 310 110 280"/>
    
    <!-- Right Laurel -->
    <path d="M372 100 Q432 150 372 350"/>
    <path d="M382 140 Q412 150 402 120"/>
    <path d="M392 180 Q422 190 412 160"/>
    <path d="M397 220 Q427 230 417 200"/>
    <path d="M392 260 Q422 270 412 240"/>
    <path d="M382 300 Q412 310 402 280"/>
  </g>
</svg>
